<svg xmlns="http://www.w3.org/2000/svg" width="24" height="24" viewBox="0 0 24 24" fill="none">
    <circle cx="12" cy="12" r="12" fill="#F5F5F5" />
    <path
        d="M17.7958 9.21362L10.4134 16.7911C10.3491 16.8573 10.2727 16.9098 10.1885 16.9457C10.1044 16.9815 10.0142 17 9.92311 17C9.83202 17 9.74183 16.9815 9.6577 16.9457C9.57358 16.9098 9.49717 16.8573 9.43288 16.7911L6.20306 13.4759C6.13868 13.4099 6.08762 13.3314 6.05277 13.2451C6.01793 13.1587 6 13.0662 6 12.9727C6 12.8793 6.01793 12.7868 6.05277 12.7004C6.08762 12.6141 6.13868 12.5356 6.20306 12.4696C6.26744 12.4035 6.34387 12.3511 6.42799 12.3153C6.5121 12.2795 6.60226 12.2611 6.6933 12.2611C6.78435 12.2611 6.8745 12.2795 6.95862 12.3153C7.04273 12.3511 7.11916 12.4035 7.18354 12.4696L9.92369 15.2821L16.8165 8.20843C16.9465 8.07497 17.1228 8 17.3067 8C17.4906 8 17.6669 8.07497 17.7969 8.20843C17.927 8.34188 18 8.52288 18 8.71162C18 8.90035 17.927 9.08135 17.7969 9.21481L17.7958 9.21362Z"
        fill="#0B2F5E" />
</svg>